<svg xmlns="http://www.w3.org/2000/svg" viewBox="0 0 640 420" role="img" aria-label="Indian Pariah dog illustration"><defs><linearGradient id="g" x1="0" x2="1" y1="0" y2="1"><stop stop-color="#e8f5f7"/><stop offset="1" stop-color="#fff8ec"/></linearGradient></defs><rect width="640" height="420" rx="28" fill="url(#g)"/><circle cx="510" cy="92" r="78" fill="#e86f51" opacity=".18"/><circle cx="122" cy="328" r="92" fill="#1f6b4f" opacity=".10"/><ellipse cx="260" cy="258" rx="104" ry="54" fill="#c98b45"/><path d="M170 248c-36 4-58-18-76-44" fill="none" stroke="#c98b45" stroke-width="24" stroke-linecap="round"/><path d="M333 252c38-2 62 16 78 48" fill="none" stroke="#c98b45" stroke-width="20" stroke-linecap="round"/><path d="M205 298v56M300 298v56" stroke="#c98b45" stroke-width="28" stroke-linecap="round"/><circle cx="377" cy="205" r="54" fill="#c98b45"/><path d="M353 168l-26-46c42-2 56 25 54 54z" fill="#c98b45"/><path d="M395 168l24-44c24 28 21 53-5 72z" fill="#c98b45"/><circle cx="394" cy="198" r="6" fill="#17201b"/><path d="M417 215c-16 15-36 15-52 2" fill="none" stroke="#17201b" stroke-width="6" stroke-linecap="round"/><path d="M368 254c-28 18-68 22-110 10" fill="none" stroke="#e86f51" stroke-width="10" stroke-linecap="round"/><rect x="38" y="34" width="260" height="54" rx="12" fill="rgba(255,255,255,.86)"/><text x="58" y="68" font-family="Inter, Arial, sans-serif" font-size="24" font-weight="800" fill="#18201c">Indian Pariah</text></svg>