<svg xmlns="http://www.w3.org/2000/svg" viewBox="0 0 640 420" role="img" aria-label="Rajapalayam dog illustration"><defs><linearGradient id="g" x1="0" x2="1" y1="0" y2="1"><stop stop-color="#fff0dc"/><stop offset="1" stop-color="#fff8ec"/></linearGradient></defs><rect width="640" height="420" rx="28" fill="url(#g)"/><circle cx="510" cy="92" r="78" fill="#1f6b4f" opacity=".18"/><circle cx="122" cy="328" r="92" fill="#1f6b4f" opacity=".10"/><ellipse cx="270" cy="250" rx="112" ry="42" fill="#f7efe1"/><path d="M175 244c-32 7-56-8-78-35" fill="none" stroke="#f7efe1" stroke-width="22" stroke-linecap="round"/><path d="M344 247c38-12 55-3 72 28" fill="none" stroke="#f7efe1" stroke-width="18" stroke-linecap="round"/><path d="M205 282v58M308 280v62" stroke="#f7efe1" stroke-width="24" stroke-linecap="round"/><circle cx="377" cy="205" r="54" fill="#f7efe1"/><path d="M353 168l-26-46c42-2 56 25 54 54z" fill="#f7efe1"/><path d="M395 168l24-44c24 28 21 53-5 72z" fill="#f7efe1"/><circle cx="394" cy="198" r="6" fill="#17201b"/><path d="M417 215c-16 15-36 15-52 2" fill="none" stroke="#17201b" stroke-width="6" stroke-linecap="round"/><path d="M368 254c-28 18-68 22-110 10" fill="none" stroke="#1f6b4f" stroke-width="10" stroke-linecap="round"/><rect x="38" y="34" width="260" height="54" rx="12" fill="rgba(255,255,255,.86)"/><text x="58" y="68" font-family="Inter, Arial, sans-serif" font-size="24" font-weight="800" fill="#18201c">Rajapalayam</text></svg>